<?xml version="1.0" encoding="UTF-8" standalone="no"?>
<svg
   xmlns:dc="http://purl.org/dc/elements/1.1/"
   xmlns:cc="http://creativecommons.org/ns#"
   xmlns:rdf="http://www.w3.org/1999/02/22-rdf-syntax-ns#"
   xmlns:svg="http://www.w3.org/2000/svg"
   xmlns="http://www.w3.org/2000/svg"
   width="660"
   height="256"
   viewBox="0 0 660.00001 256"
   id="svg2"
   version="1.1">
  <title
     id="title4173">atpc Logo</title>
  <defs
     id="defs4" />
  <metadata
     id="metadata7">
    <rdf:RDF>
      <cc:Work
         rdf:about="">
        <dc:format>image/svg+xml</dc:format>
        <dc:type
           rdf:resource="http://purl.org/dc/dcmitype/StillImage" />
        <dc:title>atpc Logo</dc:title>
      </cc:Work>
    </rdf:RDF>
  </metadata>
  <g
     style="fill:#000000;fill-opacity:1"
     id="layer1"
     transform="translate(-0.88839476,-803.89098)">
    <g
       id="flowRoot4157"
       style="font-style:normal;font-weight:normal;font-size:5px;line-height:125%;font-family:sans-serif;letter-spacing:0px;word-spacing:0px;fill:#000000;fill-opacity:1;stroke:none;stroke-width:1px;stroke-linecap:butt;stroke-linejoin:miter;stroke-opacity:1" />
    <g
       id="flowRoot4165"
       style="font-style:normal;font-variant:normal;font-weight:300;font-stretch:normal;font-size:300.5625px;line-height:87.00000048%;font-family:Raleway;-inkscape-font-specification:'Raleway Light';text-align:center;letter-spacing:0px;word-spacing:0px;text-anchor:middle;fill:#000000;fill-opacity:1;stroke:none;stroke-width:1px;stroke-linecap:butt;stroke-linejoin:miter;stroke-opacity:1"
       transform="translate(-0.21288574,790.32604)">
      <path
         id="path4145"
         style="font-style:normal;font-variant:normal;font-weight:300;font-stretch:normal;font-size:300.5625px;font-family:Quicksand;-inkscape-font-specification:'Quicksand Light';fill:#000000;fill-opacity:1"
         d="m 174.08555,59.210814 q 2.70506,0 4.20788,1.803375 1.80337,1.803375 1.80337,4.207875 l 0,137.958186 q 0,2.4045 -1.80337,4.20788 -1.80338,1.80337 -4.20788,1.80337 -2.70506,0 -4.50844,-1.80337 -1.50281,-1.80338 -1.50281,-4.20788 l 0,-27.05062 q -7.51406,15.32868 -23.14331,25.84837 -15.62925,10.21913 -34.56469,10.21913 -19.837124,0 -35.766936,-10.21913 -15.929813,-10.51969 -24.946688,-28.55344 -9.016875,-18.33431 -9.016875,-40.8765 0,-22.24162 9.016875,-39.974809 9.317438,-18.03375 25.24725,-27.952312 15.929813,-10.219125 35.466374,-10.219125 19.53656,0 35.16581,10.219125 15.62925,10.219125 22.54219,27.351187 l 0,-26.750062 q 0,-2.4045 1.50281,-4.207875 1.80338,-1.803375 4.50844,-1.803375 z M 110.96743,200.77575 q 16.53093,0 29.75568,-8.71631 13.52532,-9.01688 21.03938,-24.64613 7.51406,-15.62925 7.51406,-34.86525 0,-18.33431 -7.51406,-33.662996 -7.51406,-15.328688 -21.03938,-24.045 -13.22475,-9.016875 -29.75568,-9.016875 -16.530941,0 -30.056254,8.716312 -13.22475,8.41575 -20.738812,23.744438 -7.514063,15.028121 -7.514063,34.264121 0,19.236 7.514063,34.86525 7.514062,15.62925 20.738812,24.64613 13.22475,8.71631 30.056254,8.71631 z" />
      <path
         id="path4147"
         style="font-style:normal;font-variant:normal;font-weight:300;font-stretch:normal;font-size:300.5625px;font-family:Quicksand;-inkscape-font-specification:'Quicksand Light';fill:#000000;fill-opacity:1"
         d="m 286.10613,58.008564 q 2.10394,0 3.90732,1.803375 1.80337,1.803375 1.80337,3.907312 0,2.4045 -1.80337,4.207875 -1.50282,1.502813 -3.90732,1.502813 l -33.06187,0 0,107.000251 q 0,13.22475 4.50844,17.73319 4.809,4.20787 12.0225,4.20787 1.20225,0 3.30618,-0.60112 2.4045,-0.60113 3.90732,-0.60113 2.10393,0 3.60675,1.80338 1.50281,1.50281 1.50281,3.60675 0,2.70506 -3.60675,4.809 -3.60675,1.80337 -8.41575,1.80337 -7.51406,0 -12.62363,-0.90169 -5.10956,-1.20225 -10.82025,-8.11518 -5.41012,-7.2135 -5.41012,-23.14332 l 0,-107.601371 -24.64613,0 q -2.10393,0 -3.90731,-1.803375 -1.80337,-1.803375 -1.80337,-3.907313 0,-2.4045 1.50281,-3.907312 1.80337,-1.803375 4.20787,-1.803375 l 24.64613,0 0,-38.171438 q 0,-2.4045 1.80337,-4.207875 1.80338,-1.803375 4.20788,-1.803375 2.70506,0 4.20787,1.803375 1.80338,1.803375 1.80338,4.207875 l 0,38.171438 33.06187,0 z" />
      <path
         id="path4149"
         style="font-style:normal;font-variant:normal;font-weight:300;font-stretch:normal;font-size:300.5625px;font-family:Quicksand;-inkscape-font-specification:'Quicksand Light';fill:#000000;fill-opacity:1"
         d="m 395.03186,57.407439 q 19.83713,0 35.76694,9.918562 15.92981,9.918563 24.94669,27.351188 9.01687,17.432621 9.01687,39.373691 0,21.6405 -9.31743,39.37368 -9.01688,17.43263 -24.94669,27.65175 -15.92981,9.91857 -35.46638,9.91857 -18.03375,0 -33.06187,-9.01688 -15.02813,-9.01687 -24.64613,-25.54781 l 0,86.86256 q 0,2.4045 -1.80337,4.20788 -1.50281,1.80337 -4.20788,1.80337 -2.4045,0 -4.20787,-1.80337 -1.80338,-1.80338 -1.80338,-4.20788 l 0,-199.874061 q 0,-2.4045 1.50282,-4.207875 1.80337,-1.803375 4.50843,-1.803375 2.70507,0 4.20788,1.803375 1.80337,1.803375 1.80337,4.207875 l 0,27.65175 q 9.01688,-17.132063 24.045,-25.24725 15.02813,-8.41575 33.663,-8.41575 z M 394.43074,199.5735 q 16.53094,0 29.75569,-8.41575 13.22475,-8.41575 20.73881,-23.44387 7.81462,-15.02813 7.81462,-33.663 0,-18.63488 -7.81462,-33.36244 -7.51406,-15.028126 -20.73881,-23.443876 -13.22475,-8.41575 -29.75569,-8.41575 -16.8315,0 -30.35681,8.41575 -13.22475,8.115187 -20.73882,23.143316 -7.2135,14.72756 -7.2135,33.663 0,18.93543 7.2135,33.96356 7.51407,14.72756 20.73882,23.14331 13.52531,8.41575 30.35681,8.41575 z" />
      <path
         id="path4151"
         style="font-style:normal;font-variant:normal;font-weight:300;font-stretch:normal;font-size:300.5625px;font-family:Quicksand;-inkscape-font-specification:'Quicksand Light';fill:#000000;fill-opacity:1"
         d="m 569.56945,54.401814 q 12.92418,0 24.94668,3.005625 12.32307,3.005625 19.53657,8.115187 7.51406,4.809 7.51406,10.219125 0,2.4045 -1.80338,4.207875 -1.50281,1.803375 -3.90731,1.803375 -2.70506,0 -4.20787,-0.901687 -1.20225,-0.901688 -3.60675,-3.306188 -3.90732,-4.508437 -8.11519,-6.612375 -10.82025,-5.109562 -30.65738,-5.109562 -17.13206,0 -31.85962,9.016875 -14.427,9.016875 -23.14331,24.646125 -8.41575,15.328691 -8.41575,33.663001 0,19.236 7.81462,34.86525 8.11519,15.32869 22.54219,24.045 14.72756,8.71631 33.06187,8.71631 12.0225,0 18.93544,-2.10394 6.91294,-2.10393 13.82588,-6.01125 4.809,-3.00562 8.41575,-6.61237 1.50281,-1.50281 3.00562,-2.4045 1.50281,-1.20225 3.00563,-1.20225 2.4045,0 3.60675,1.50281 1.50281,1.50281 1.50281,3.90731 0,4.20788 -6.91294,10.21913 -6.91294,5.71069 -19.236,9.91856 -12.0225,4.20788 -27.05062,4.20788 -21.6405,0 -38.77257,-10.21913 -16.8315,-10.21912 -26.4495,-28.25287 -9.31743,-18.03375 -9.31743,-40.57594 0,-21.03938 9.31743,-39.073126 9.618,-18.03375 26.75007,-28.854 17.43262,-10.82025 39.67425,-10.82025 z" />
    </g>
  </g>
</svg>
