<?xml version="1.0" encoding="UTF-8" standalone="no"?>
<svg
   xmlns:dc="http://purl.org/dc/elements/1.1/"
   xmlns:cc="http://creativecommons.org/ns#"
   xmlns:rdf="http://www.w3.org/1999/02/22-rdf-syntax-ns#"
   xmlns:svg="http://www.w3.org/2000/svg"
   xmlns="http://www.w3.org/2000/svg"
   version="1.1"
   id="svg2"
   viewBox="0 0 660.00001 256"
   height="256"
   width="660">
  <title
     id="title4173">atpc Logo</title>
  <defs
     id="defs4" />
  <metadata
     id="metadata7">
    <rdf:RDF>
      <cc:Work
         rdf:about="">
        <dc:format>image/svg+xml</dc:format>
        <dc:type
           rdf:resource="http://purl.org/dc/dcmitype/StillImage" />
        <dc:title>atpc Logo</dc:title>
      </cc:Work>
    </rdf:RDF>
  </metadata>
  <g
     transform="translate(0,-796.36216)"
     id="layer1">
    <flowRoot
       style="fill:black;stroke:none;stroke-opacity:1;stroke-width:1px;stroke-linejoin:miter;stroke-linecap:butt;fill-opacity:1;font-family:sans-serif;font-style:normal;font-weight:normal;font-size:5px;line-height:125%;letter-spacing:0px;word-spacing:0px"
       id="flowRoot4157"
       xml:space="preserve"><flowRegion
         id="flowRegion4159"><rect
           y="5.4821687"
           x="35.355339"
           height="9.0913725"
           width="14.142136"
           id="rect4161" /></flowRegion><flowPara
         id="flowPara4163" /></flowRoot>    <g
       id="flowRoot4165"
       style="font-style:normal;font-variant:normal;font-weight:300;font-stretch:normal;font-size:281.25px;line-height:87.00000048%;font-family:Raleway;-inkscape-font-specification:'Raleway Light';text-align:center;letter-spacing:0px;word-spacing:0px;text-anchor:middle;fill:#ffffff;fill-opacity:1;stroke:none;stroke-width:1px;stroke-linecap:butt;stroke-linejoin:miter;stroke-opacity:1"
       transform="translate(-0.16479492,796.50792)">
      <path
         id="path4185"
         style=""
         d="m 109.71533,198.72924 q -10.124998,0 -18.843748,-3.375 -8.71875,-3.65625 -15.1875,-9.5625 -6.46875,-6.1875 -10.125,-14.34375 -3.65625,-8.15625 -3.65625,-17.71875 0,-9.28125 4.5,-16.875 4.5,-7.875 12.375,-13.5 8.15625,-5.625 19.125,-8.71875 11.249998,-3.09375 24.468748,-3.09375 12.375,0 24.75,1.96875 12.65625,1.96875 22.78125,5.90625 l 0,-15.75 q 0,-21.937501 -12.65625,-34.875001 -12.375,-13.21875 -33.46875,-13.21875 -10.6875,0 -22.78125,4.78125 -12.093748,4.5 -24.187498,13.21875 l -4.5,-7.03125 q 28.124998,-19.125 52.031248,-19.125 25.59375,0 40.21875,15.1875 14.90625,15.1875 14.90625,41.625001 l 0,76.5 q 0,6.1875 5.0625,6.1875 l 0,9 q -0.84375,0.28125 -1.6875,0.28125 -0.5625,0 -1.125,0 -4.78125,0 -8.15625,-3.375 -3.09375,-3.65625 -3.09375,-8.71875 l 0,-12.9375 q -10.125,13.21875 -26.15625,20.53125 -16.03125,7.03125 -34.59375,7.03125 z m 1.125,-8.15625 q 10.40625,0 20.8125,-2.8125 10.6875,-2.8125 19.125,-7.59375 8.4375,-5.0625 13.78125,-11.53125 5.34375,-6.46875 5.34375,-13.78125 l 0,-27.5625 q -21.9375,-8.4375 -46.6875,-8.4375 -11.53125,0 -21.09375,2.53125 -9.562498,2.53125 -16.593748,7.03125 -6.75,4.5 -10.6875,10.96875 -3.65625,6.1875 -3.65625,14.0625 0,7.875 3.09375,14.625 3.09375,6.75 8.4375,11.8125 5.34375,5.0625 12.375,7.875 7.312498,2.8125 15.749998,2.8125 z" />
      <path
         id="path4187"
         style=""
         d="m 282.79395,189.16674 q -0.5625,0.28125 -2.8125,1.6875 -2.25,1.125 -6.1875,2.8125 -3.65625,1.40625 -8.71875,2.53125 -4.78125,1.125 -10.6875,1.125 -10.96875,0 -19.125,-6.1875 -7.875,-6.46875 -7.875,-18 l 0,-115.031251 -20.8125,0 0,-8.4375 20.8125,0 0,-50.34375028 9.5625,0 0,50.34375028 34.59375,0 0,8.4375 -34.59375,0 0,113.625001 q 0.5625,8.15625 6.1875,12.375 5.625,4.21875 12.9375,4.21875 4.5,0 8.4375,-0.84375 4.21875,-1.125 7.3125,-2.25 3.09375,-1.40625 5.0625,-2.53125 1.96875,-1.125 2.25,-1.40625 l 3.65625,7.875 z" />
      <path
         id="path4189"
         style=""
         d="m 376.34912,198.72924 q -9.5625,0 -18.28125,-2.8125 -8.4375,-2.8125 -16.03125,-7.59375 -7.3125,-4.78125 -13.5,-11.25 -6.1875,-6.46875 -10.6875,-13.78125 l 0,92.53125 -9.5625,0 0,-206.156251 9,0 0,30.375 q 4.5,-7.03125 10.6875,-12.9375 6.46875,-6.1875 13.78125,-10.40625 7.59375,-4.5 15.46875,-6.75 8.15625,-2.53125 16.59375,-2.53125 15.1875,0 28.125,6.46875 12.9375,6.46875 22.21875,17.15625 9.28125,10.6875 14.34375,24.46875 5.34375,13.500001 5.34375,27.562501 0,15.1875 -5.0625,28.96875 -4.78125,13.78125 -13.78125,24.1875 -8.71875,10.125 -21.09375,16.3125 -12.375,6.1875 -27.5625,6.1875 z m -1.40625,-9 q 13.5,0 24.46875,-5.625 10.96875,-5.90625 18.5625,-15.1875 7.875,-9.5625 12.09375,-21.375 4.21875,-12.09375 4.21875,-24.46875 0,-12.9375 -4.78125,-25.031251 -4.78125,-12.09375 -13.21875,-21.375 -8.4375,-9.28125 -19.6875,-14.625 -11.25,-5.625 -24.1875,-5.625 -8.15625,0 -17.4375,3.65625 -9,3.375 -17.15625,9.28125 -7.875,5.625 -13.5,13.21875 -5.625,7.59375 -6.46875,16.03125 l 0,50.343751 q 3.65625,8.4375 9.5625,16.03125 6.1875,7.3125 13.5,12.9375 7.3125,5.34375 16.03125,8.71875 8.71875,3.09375 18,3.09375 z" />
      <path
         id="path4191"
         style=""
         d="m 468.71777,122.22924 q 0,-15.75 5.34375,-29.250001 5.34375,-13.78125 14.90625,-23.90625 9.5625,-10.125 22.5,-15.75 13.21875,-5.90625 28.40625,-5.90625 19.125,0 34.03125,9 14.90625,8.71875 22.21875,24.1875 l -9.28125,3.375 q -7.03125,-12.9375 -19.6875,-20.25 -12.65625,-7.3125 -28.125,-7.3125 -12.65625,0 -23.90625,5.0625 -10.96875,5.0625 -19.40625,14.0625 -8.15625,8.71875 -12.9375,20.8125 -4.5,12.093751 -4.5,25.875001 0,13.78125 4.78125,26.15625 5.0625,12.09375 13.21875,21.375 8.4375,9.28125 19.40625,14.625 11.25,5.34375 23.625,5.34375 8.15625,0 16.03125,-2.25 8.15625,-2.53125 14.90625,-6.46875 6.75,-3.9375 11.53125,-9 5.0625,-5.34375 6.75,-11.25 l 9.5625,2.8125 q -2.53125,7.59375 -8.4375,14.0625 -5.625,6.46875 -13.5,11.25 -7.59375,4.5 -16.875,7.03125 -9.28125,2.8125 -19.125,2.8125 -14.90625,0 -27.84375,-5.90625 -12.9375,-6.1875 -22.78125,-16.59375 -9.5625,-10.40625 -15.1875,-24.1875 -5.625,-14.0625 -5.625,-29.8125 z" />
    </g>
  </g>
</svg>
