<?xml version="1.0" encoding="UTF-8" standalone="no"?>
<svg
   xmlns:dc="http://purl.org/dc/elements/1.1/"
   xmlns:cc="http://creativecommons.org/ns#"
   xmlns:rdf="http://www.w3.org/1999/02/22-rdf-syntax-ns#"
   xmlns:svg="http://www.w3.org/2000/svg"
   xmlns="http://www.w3.org/2000/svg"
   xmlns:sodipodi="http://sodipodi.sourceforge.net/DTD/sodipodi-0.dtd"
   xmlns:inkscape="http://www.inkscape.org/namespaces/inkscape"
   height="32px"
   version="1.1"
   viewBox="0 0 32 32"
   width="32px"
   id="svg2"
   inkscape:version="0.91 r13725"
   sodipodi:docname="opensource.svg">
  <metadata
     id="metadata15">
    <rdf:RDF>
      <cc:Work
         rdf:about="">
        <dc:format>image/svg+xml</dc:format>
        <dc:type
           rdf:resource="http://purl.org/dc/dcmitype/StillImage" />
        <dc:title />
      </cc:Work>
    </rdf:RDF>
  </metadata>
  <sodipodi:namedview
     pagecolor="#ffffff"
     bordercolor="#666666"
     borderopacity="1"
     objecttolerance="10"
     gridtolerance="10"
     guidetolerance="10"
     inkscape:pageopacity="0"
     inkscape:pageshadow="2"
     inkscape:window-width="1858"
     inkscape:window-height="1057"
     id="namedview13"
     showgrid="false"
     inkscape:zoom="7.375"
     inkscape:cx="-6.1016949"
     inkscape:cy="16"
     inkscape:window-x="1912"
     inkscape:window-y="-8"
     inkscape:window-maximized="1"
     inkscape:current-layer="svg2" />
  <desc
     id="desc6" />
  <defs
     id="defs8" />
  <g
     id="Page-1"
     transform="translate(-0.5,-0.5)"
     style="fill:#121212;fill-rule:evenodd;stroke:none;stroke-width:1;fill-opacity:1">
    <g
       id="icon-24-key"
       style="fill:#121212;fill-opacity:1">
      <path
         d="M 18.532404,19.467596 14,24 l -3,0 0,3 -3,0 0,3 -5,0 0,-5 10.532404,-10.532404 C 13.188157,13.543721 13,12.543834 13,11.5 13,6.8055794 16.805579,3 21.5,3 26.194421,3 30,6.8055794 30,11.5 30,16.194421 26.194421,20 21.5,20 20.456166,20 19.456279,19.811843 18.532404,19.467596 l 0,0 0,0 z M 27,9 c 0,-1.6568543 -1.343146,-3 -3,-3 -1.656854,0 -3,1.3431457 -3,3 0,1.656854 1.343146,3 3,3 1.656854,0 3,-1.343146 3,-3 l 0,0 z"
         id="key"
         inkscape:connector-curvature="0"
         style="fill:#121212;fill-opacity:1" />
    </g>
  </g>
</svg>
