<?xml version="1.0" encoding="UTF-8" standalone="no"?>
<!-- Created with Inkscape (http://www.inkscape.org/) -->

<svg
   xmlns:dc="http://purl.org/dc/elements/1.1/"
   xmlns:cc="http://creativecommons.org/ns#"
   xmlns:rdf="http://www.w3.org/1999/02/22-rdf-syntax-ns#"
   xmlns:svg="http://www.w3.org/2000/svg"
   xmlns="http://www.w3.org/2000/svg"
   xmlns:sodipodi="http://sodipodi.sourceforge.net/DTD/sodipodi-0.dtd"
   xmlns:inkscape="http://www.inkscape.org/namespaces/inkscape"
   version="1.0"
   width="228.092"
   height="475.24799"
   viewBox="0 0 228.092 475.248"
   id="Layer_1"
   xml:space="preserve"
   inkscape:version="0.91 r13725"
   sodipodi:docname="usb.svg"><metadata
     id="metadata3341"><rdf:RDF><cc:Work
         rdf:about=""><dc:format>image/svg+xml</dc:format><dc:type
           rdf:resource="http://purl.org/dc/dcmitype/StillImage" /><dc:title /></cc:Work></rdf:RDF></metadata><sodipodi:namedview
     pagecolor="#ffffff"
     bordercolor="#666666"
     borderopacity="1"
     objecttolerance="10"
     gridtolerance="10"
     guidetolerance="10"
     inkscape:pageopacity="0"
     inkscape:pageshadow="2"
     inkscape:window-width="1858"
     inkscape:window-height="1057"
     id="namedview3339"
     showgrid="false"
     inkscape:snap-global="true"
     inkscape:zoom="3.5833924"
     inkscape:cx="149.88901"
     inkscape:cy="136.37121"
     inkscape:window-x="1912"
     inkscape:window-y="-8"
     inkscape:window-maximized="1"
     inkscape:current-layer="Layer_1" /><defs
     id="defs1337" /><path
     d="m 114.055,12.409995 -28.896004,50.03701 20.613004,0 0,255.752985 -52.612004,-49.798 c -3.397,-4.238 -5.78,-9.783 -5.912,-15.487 0,-23.075 -0.006,-36.77799 -0.016,-41.82199 9.741,-3.419 16.772,-12.603 16.772,-23.521 0,-13.812 -11.208,-25.021 -25.025,-25.021 -13.823,0 -25.027,11.208 -25.027,25.021 0,10.918 7.027,20.102 16.76,23.521 l -0.007,41.33199 c 0,11.202 6.146,22.94 13.351,30.411 -0.214,-0.204 -0.442,-0.416 0.004,0.012 0.178,0.158 55.814,52.834 55.814,52.834 3.392004,4.229 5.760004,9.771 5.896004,15.471 l 0,28.932 c -19.113004,3.835 -33.513004,20.713 -33.513004,40.959 0,23.083 18.711,41.794 41.787004,41.794 23.083,0 41.795,-18.711 41.795,-41.794 0,-20.25 -14.412,-37.128 -33.541,-40.963 l 0,-28.425 c 0,-0.073 0.004,-0.146 0,-0.22 l 0,-62.871 c 0.145,-5.689 2.516,-11.224 5.912,-15.449 0,0 55.632,-52.66399 55.812,-52.82699 0.447,-0.422 0.214,-0.212 0.004,-0.004 7.204,-7.471 13.346,-19.214 13.346,-30.418 l -0.009,-39.832 16.777,0 0,-50.049995 -50.045,0 0,50.049995 16.755,0 c 0,0 -0.019,10.491 -0.019,40.32 -0.131,5.705 -2.511,11.256 -5.908,15.492 l -52.622,49.80899 0,-193.208985 20.646,0 -28.892,-50.03701 z"
     id="path1334"
     inkscape:connector-curvature="0"
     style="fill:#121212;fill-opacity:1" /></svg>