<?xml version="1.0" encoding="UTF-8" standalone="no"?>
<!-- Created with Inkscape (http://www.inkscape.org/) -->

<svg
   xmlns:dc="http://purl.org/dc/elements/1.1/"
   xmlns:cc="http://creativecommons.org/ns#"
   xmlns:rdf="http://www.w3.org/1999/02/22-rdf-syntax-ns#"
   xmlns:svg="http://www.w3.org/2000/svg"
   xmlns="http://www.w3.org/2000/svg"
   xmlns:sodipodi="http://sodipodi.sourceforge.net/DTD/sodipodi-0.dtd"
   xmlns:inkscape="http://www.inkscape.org/namespaces/inkscape"
   width="240"
   height="240"
   viewBox="0 0 240.00001 240.00001"
   id="svg4145"
   version="1.1"
   inkscape:version="0.91 r13725"
   sodipodi:docname="icon.svg"
   inkscape:export-filename="C:\Users\Work\Documents\ATPC\Open Creative\open_creative_icon.png"
   inkscape:export-xdpi="192"
   inkscape:export-ydpi="192">
  <title
     id="title4695">Open Creative Icon</title>
  <defs
     id="defs4147" />
  <sodipodi:namedview
     id="base"
     pagecolor="#ffffff"
     bordercolor="#666666"
     borderopacity="1.0"
     inkscape:pageopacity="0.0"
     inkscape:pageshadow="2"
     inkscape:zoom="2"
     inkscape:cx="68.86404"
     inkscape:cy="93.54781"
     inkscape:document-units="px"
     inkscape:current-layer="layer1"
     showgrid="false"
     units="px"
     inkscape:window-width="1858"
     inkscape:window-height="1057"
     inkscape:window-x="1912"
     inkscape:window-y="-8"
     inkscape:window-maximized="1" />
  <metadata
     id="metadata4150">
    <rdf:RDF>
      <cc:Work
         rdf:about="">
        <dc:format>image/svg+xml</dc:format>
        <dc:type
           rdf:resource="http://purl.org/dc/dcmitype/StillImage" />
        <dc:title>Open Creative Icon</dc:title>
      </cc:Work>
    </rdf:RDF>
  </metadata>
  <g
     inkscape:label="Ebene 1"
     inkscape:groupmode="layer"
     id="layer1"
     transform="translate(0,-812.36219)">
    <rect
       y="812.36218"
       x="-4.7683673e-007"
       height="240.00002"
       width="240.00002"
       id="rect4697"
       style="fill:#000000;fill-opacity:1;stroke:none;stroke-width:10.00000095;stroke-linejoin:miter;stroke-miterlimit:4;stroke-dasharray:none;stroke-opacity:1" />
    <flowRoot
       xml:space="preserve"
       id="flowRoot4707"
       style="fill:black;stroke:none;stroke-opacity:1;stroke-width:1px;stroke-linejoin:miter;stroke-linecap:butt;fill-opacity:1;font-family:sans-serif;font-style:normal;font-weight:normal;font-size:5px;line-height:125%;letter-spacing:0px;word-spacing:0px"><flowRegion
         id="flowRegion4709"><rect
           id="rect4711"
           width="1.5"
           height="14"
           x="117"
           y="114.5" /></flowRegion><flowPara
         id="flowPara4713" /></flowRoot>    <g
       transform="translate(0.49745036,823.72058)"
       style="font-style:normal;font-variant:normal;font-weight:normal;font-stretch:normal;font-size:132.50001526px;line-height:125%;font-family:Raleway;-inkscape-font-specification:Raleway;letter-spacing:-19.98000336px;word-spacing:0px;fill:#ffffff;fill-opacity:1;stroke:none;stroke-width:1px;stroke-linecap:butt;stroke-linejoin:miter;stroke-opacity:1"
       id="flowRoot4699">
      <path
         d="m 83.4457,156.27538 q -9.937502,0 -18.152503,-3.975 -8.0825,-4.1075 -13.912501,-10.7325 -5.830001,-6.75751 -9.010001,-15.37001 -3.180001,-8.6125 -3.180001,-17.6225 0,-9.407499 3.312501,-18.02 3.445,-8.612501 9.407501,-15.237502 5.962501,-6.625001 14.045002,-10.467501 8.215001,-3.975001 17.755002,-3.975001 9.937501,0 18.02,4.240001 8.0825,4.1075 13.9125,10.865001 5.83,6.757501 9.01,15.370002 3.18,8.480001 3.18,17.3575 0,9.4075 -3.445,18.02 -3.3125,8.6125 -9.275,15.23751 -5.83,6.4925 -14.045,10.4675 -8.082499,3.8425 -17.6225,3.8425 z M 51.248196,108.57537 q 0,7.155 2.2525,13.9125 2.385,6.625 6.625001,11.7925 4.24,5.16751 10.202501,8.21501 5.962501,3.0475 13.250002,3.0475 7.5525,0 13.515001,-3.18 5.962499,-3.3125 10.069999,-8.48001 4.24,-5.3 6.36,-11.925 2.2525,-6.625 2.2525,-13.3825 0,-7.155 -2.385,-13.78 -2.2525,-6.7575 -6.625,-11.792501 -4.24,-5.167501 -10.202499,-8.215001 -5.830001,-3.0475 -12.985001,-3.0475 -7.552501,0 -13.515002,3.18 -5.962501,3.18 -10.202501,8.347501 -4.107501,5.167501 -6.360001,11.792501 -2.2525,6.625 -2.2525,13.515 z"
         style="font-style:normal;font-variant:normal;font-weight:500;font-stretch:normal;font-size:132.50001526px;font-family:Raleway;-inkscape-font-specification:'Raleway Medium';text-align:center;letter-spacing:-19.98000336px;text-anchor:middle;fill:#ffffff;fill-opacity:1"
         id="path4144" />
      <path
         d="m 118.32691,107.91287 q 0,-8.479999 2.915,-16.8275 3.0475,-8.480001 8.745,-15.105002 5.83,-6.757501 14.1775,-10.865001 8.3475,-4.107501 18.9475,-4.107501 12.58751,0 21.59751,5.697501 9.01,5.697501 13.3825,14.840002 l -9.4075,6.095 q -2.12,-4.505 -5.1675,-7.5525 -2.915,-3.047501 -6.4925,-4.902501 -3.445,-1.855 -7.155,-2.65 -3.71,-0.795 -7.28751,-0.795 -7.8175,0 -13.9125,3.3125 -5.9625,3.18 -10.07,8.480001 -4.1075,5.167501 -6.2275,11.792501 -1.9875,6.4925 -1.9875,13.1175 0,7.42 2.385,14.1775 2.5175,6.625 6.89,11.7925 4.3725,5.16751 10.335,8.21501 5.9625,3.0475 12.985,3.0475 3.71001,0 7.55251,-0.9275 3.975,-0.9275 7.5525,-2.915 3.5775,-2.12 6.625,-5.1675 3.18,-3.18001 5.1675,-7.55251 l 9.9375,5.4325 q -2.2525,5.30001 -6.36,9.40751 -3.975,3.975 -9.1425,6.7575 -5.035,2.7825 -10.7325,4.24 -5.6975,1.4575 -11.13001,1.4575 -9.6725,0 -17.755,-4.24 -8.0825,-4.24 -14.045,-10.9975 -5.83,-6.89001 -9.1425,-15.50251 -3.18,-8.745 -3.18,-17.755 z"
         style="font-style:normal;font-variant:normal;font-weight:500;font-stretch:normal;font-size:132.50001526px;font-family:Raleway;-inkscape-font-specification:'Raleway Medium';text-align:center;letter-spacing:-19.98000336px;text-anchor:middle;fill:#ffffff;fill-opacity:1"
         id="path4146" />
    </g>
  </g>
</svg>
