<?xml version="1.0" encoding="UTF-8" standalone="no"?>
<svg
   xmlns:dc="http://purl.org/dc/elements/1.1/"
   xmlns:cc="http://creativecommons.org/ns#"
   xmlns:rdf="http://www.w3.org/1999/02/22-rdf-syntax-ns#"
   xmlns:svg="http://www.w3.org/2000/svg"
   xmlns="http://www.w3.org/2000/svg"
   version="1.1"
   id="svg4145"
   viewBox="0 0 240.00001 240.00001"
   height="240"
   width="240">
  <title
     id="title4695">Studio OC</title>
  <defs
     id="defs4147" />
  <metadata
     id="metadata4150">
    <rdf:RDF>
      <cc:Work
         rdf:about="">
        <dc:format>image/svg+xml</dc:format>
        <dc:type
           rdf:resource="http://purl.org/dc/dcmitype/StillImage" />
        <dc:title>Studio OC</dc:title>
      </cc:Work>
    </rdf:RDF>
  </metadata>
  <g
     transform="translate(0,-812.36219)"
     id="layer1">
    <rect
       style="fill:#27062e;fill-opacity:1;stroke:none;stroke-width:10.00000095;stroke-linejoin:miter;stroke-miterlimit:4;stroke-dasharray:none;stroke-opacity:1"
       id="rect4697"
       width="240.00002"
       height="240.00002"
       x="-4.7683673e-007"
       y="812.36218" />
    <rect
       y="817.36218"
       x="4.9999843"
       height="230.00005"
       width="230.00005"
       id="rect4693"
       style="fill:none;fill-opacity:1;stroke:#c542e6;stroke-width:10.00000095;stroke-linejoin:miter;stroke-miterlimit:4;stroke-dasharray:none;stroke-opacity:1" />
    <flowRoot
       style="fill:black;stroke:none;stroke-opacity:1;stroke-width:1px;stroke-linejoin:miter;stroke-linecap:butt;fill-opacity:1;font-family:sans-serif;font-style:normal;font-weight:normal;font-size:5px;line-height:125%;letter-spacing:0px;word-spacing:0px"
       id="flowRoot4707"
       xml:space="preserve"><flowRegion
         id="flowRegion4709"><rect
           y="114.5"
           x="117"
           height="14"
           width="1.5"
           id="rect4711" /></flowRegion><flowPara
         id="flowPara4713" /></flowRoot>    <g
       id="flowRoot4699"
       style="font-style:normal;font-variant:normal;font-weight:normal;font-stretch:normal;font-size:156.25001526px;line-height:125%;font-family:Raleway;-inkscape-font-specification:Raleway;text-align:center;letter-spacing:0px;word-spacing:0px;text-anchor:middle;fill:#c542e6;fill-opacity:1;stroke:none;stroke-width:1px;stroke-linecap:butt;stroke-linejoin:miter;stroke-opacity:1"
       transform="translate(-0.19042192,808.2916)">
      <path
         id="path4145"
         style="font-style:normal;font-variant:normal;font-weight:500;font-stretch:normal;font-size:156.25001526px;font-family:Raleway;-inkscape-font-specification:'Raleway Medium';text-align:center;text-anchor:middle;fill:#c542e6;fill-opacity:1"
         d="m 122.8772,91.726849 q -1.875,-2.187501 -5,-4.218751 -3.125,-2.03125 -7.03125,-3.59375 -3.90625,-1.71875 -8.59375,-2.65625 -4.531255,-1.09375 -9.531255,-1.09375 -12.968752,0 -19.062502,4.84375 -5.937501,4.843751 -5.937501,13.281251 0,4.531251 1.71875,7.500001 1.718751,2.96875 5.312501,5.15625 3.75,2.03125 9.218751,3.59375 5.46875,1.5625 12.968751,3.28125 8.593755,1.875 15.468755,4.375 7.03125,2.34375 11.875,5.9375 5,3.59375 7.5,8.75 2.65625,5.15625 2.65625,12.65625 0,7.96876 -3.125,13.90626 -3.125,5.78125 -8.59375,9.6875 -5.3125,3.75 -12.65625,5.625 -7.34375,1.71875 -15.937505,1.71875 -12.812501,0 -24.375003,-3.90625 -11.406251,-4.0625 -20.781252,-11.71875 l 6.718751,-11.87501 q 2.5,2.65625 6.406251,5.31251 4.0625,2.65625 9.062501,4.84375 5.15625,2.03125 10.937501,3.4375 5.9375,1.25 12.343751,1.25 11.875005,0 18.437505,-4.21875 6.5625,-4.21875 6.5625,-12.65626 0,-4.6875 -2.1875,-7.8125 -2.03125,-3.28125 -6.09375,-5.625 -4.0625,-2.34375 -10.15625,-4.0625 -5.937505,-1.875 -13.593756,-3.75 -8.437501,-2.03125 -14.843751,-4.375 -6.406251,-2.34375 -10.781251,-5.625 -4.218751,-3.28125 -6.406251,-7.96875 -2.1875,-4.6875 -2.1875,-11.25 0,-7.968751 2.96875,-14.062502 2.96875,-6.09375 8.281251,-10.312501 5.3125,-4.21875 12.656251,-6.25 7.343751,-2.187501 15.937502,-2.187501 11.250005,0 20.312505,3.437501 9.0625,3.4375 16.09375,9.218751 l -6.5625,11.406251 z" />
      <path
         id="path4147"
         style="font-style:normal;font-variant:normal;font-weight:500;font-stretch:normal;font-size:156.25001526px;font-family:Raleway;-inkscape-font-specification:'Raleway Medium';text-align:center;text-anchor:middle;fill:#c542e6;fill-opacity:1"
         d="m 191.40992,175.32061 q -1.25,0.625 -3.28125,1.5625 -2.03125,0.78125 -4.6875,1.71875 -2.5,0.78125 -5.625,1.25 -2.96875,0.625 -6.25,0.625 -7.5,0 -12.96876,-4.0625 -5.46875,-4.21875 -5.46875,-12.96875 l 0,-54.84376 -11.09375,0 0,-10.781251 11.09375,0 0,-27.187502 13.75001,0 0,27.187502 18.28125,0 0,10.781251 -18.28125,0 0,50.62501 q 0.3125,4.53125 2.96875,6.5625 2.65625,2.03125 6.25,2.03125 4.0625,0 7.34375,-1.25 3.4375,-1.40625 4.6875,-2.1875 l 3.28125,10.9375 z" />
    </g>
  </g>
</svg>
