<?xml version="1.0" encoding="UTF-8" standalone="no"?>
<svg
   xmlns:dc="http://purl.org/dc/elements/1.1/"
   xmlns:cc="http://creativecommons.org/ns#"
   xmlns:rdf="http://www.w3.org/1999/02/22-rdf-syntax-ns#"
   xmlns:svg="http://www.w3.org/2000/svg"
   xmlns="http://www.w3.org/2000/svg"
   version="1.1"
   x="0px"
   y="0px"
   viewBox="0 0 100 100"
   enable-background="new 0 0 100 100"
   xml:space="preserve"
   id="svg2"><title
     id="title4135">Deer</title><metadata
     id="metadata10"><rdf:RDF><cc:Work
         rdf:about=""><dc:format>image/svg+xml</dc:format><dc:type
           rdf:resource="http://purl.org/dc/dcmitype/StillImage" /><dc:title>Deer</dc:title></cc:Work></rdf:RDF></metadata><defs
     id="defs8"><filter
       style="color-interpolation-filters:sRGB;"
       id="filter3338"><feColorMatrix
         values="-1 0 0 0 1 0 -1 0 0 1 0 0 -1 0 1 0.21 0.72 0.07 1 0 "
         result="color2"
         id="feColorMatrix3340" /></filter></defs><path
     d="m 76.7,32.5 c 0,0.3 -4.6,1.2 -7.8,3.5 -2.6,1.9 -3.8,4.3 -3.9,4.7 -0.1,0.7 1.1,1.1 2.1,1.3 1.1,0.1 3,-1.9 3.3,-1.7 0.3,0.2 -1.4,2.8 -3.2,2.7 -1.8,-0.2 -2.9,-0.3 -4.8,-0.5 -1.9,-0.2 -5.2,2.6 -5.6,3.8 -0.2,0.7 -0.2,1 -0.1,1.2 0.1,0 0.1,0 0.1,0 0,0 2.2,-1.7 3.5,-2.5 1.3,-0.8 3.8,-1.4 3.8,-1.4 0,0 0.2,4 -1.5,6 -0.6,0.7 -1.4,1.2 -3,1.8 -1.5,0.6 -2.3,1.8 -2.3,1.8 0,0 0.6,1.1 0.2,2.8 0,1.4 -0.5,2 -0.5,2.2 l 0,0 c 0,0.4 0.3,2 0.9,2.4 0.7,0.5 1.1,2.2 1,2.2 -0.1,0 -0.3,-0.3 -0.4,-0.1 -0.1,0.2 1,2.5 0.8,2.8 -0.6,-0.3 -0.5,-0.4 -0.7,-0.3 -0.3,0.4 1.2,5.7 0.7,6.5 -0.1,0 -0.3,-0.8 -0.5,-0.6 -0.2,0.2 0.2,3.3 -0.4,3.3 -0.3,-0.3 -0.6,-0.2 -0.9,0.2 C 57.1,75 57,76.4 56.6,76.9 56.5,77 56.2,76.6 56,76.5 55,77 54.6,80 54.5,79.7 c -0.2,-0.3 -0.7,-0.6 -1,-0.3 -0.9,1.3 -2.8,3.7 -3,3.6 C 50.2,82.9 49.6,80.9 49.3,80.7 49,80.6 48.8,81.5 48.6,81.1 48.4,80.7 47.1,78.4 46.1,77.6 45,76 45.7,77.9 45.3,77.8 45,77.7 42.7,74 42.9,72.3 c 0.2,-1.7 -0.3,0.3 -0.6,0.2 -0.5,-0.8 0.2,-3.3 0.1,-3.8 -0.1,-0.6 -0.8,0.2 -1,0 -0.2,-0.1 0.1,-1.9 0.3,-3.3 0.2,-1.4 0.7,-1.7 0.7,-2.3 -0.1,0 -0.9,0.3 -0.9,0.3 0,0 0.2,-1 1.3,-2.7 1,-1.7 0.6,-2.1 1.1,-2.5 -0.2,-0.2 -0.7,-0.9 -0.9,-2.3 -0.3,-1.8 0.1,-2.8 0.1,-2.8 0,0 -0.8,-1.2 -2.3,-1.8 -1.5,-0.6 -2.4,-1.1 -3,-1.8 -1.8,-2.1 -1.5,-6 -1.5,-6 0,0 2.5,0.6 3.8,1.4 1.3,0.8 3.5,2.5 3.5,2.5 0,0 0,0 0.1,0 0.1,-0.1 0.1,-0.4 -0.1,-1.2 -0.3,-1.3 -3.7,-4 -5.6,-3.8 -1.9,0.2 -3,0.4 -4.8,0.5 -1.8,0.2 -3.5,-2.5 -3.2,-2.7 0.3,-0.2 2.2,1.8 3.3,1.7 1.1,-0.1 2.3,-0.5 2.2,-1.3 0,-0.3 -1.3,-2.8 -3.9,-4.7 -3.1,-2.3 -7.8,-3.2 -7.8,-3.5 0,-0.3 2.2,-0.4 1.5,-0.6 -0.7,-0.2 -1,-5.2 -0.7,-5.2 0.3,0 1,5.3 4,6.2 2.1,0.6 1.9,-0.7 1.9,-0.7 0,0 0.6,-4.3 -0.7,-6 -1.2,-1.7 -1.9,-6.3 -1.5,-6.4 0.3,-0.1 0.8,4 1.7,4.1 0.9,0 4.2,-7.1 4.8,-6.7 0.6,0.3 -2.5,4.9 -3.3,7.5 -0.6,2.6 0.4,2.5 0.9,1.7 0.5,-0.9 3.2,-6.8 3.2,-6.4 0.1,0.4 -0.4,2.8 -1.7,6 -1.6,3.2 -2,3.7 -1.5,6.8 1.6,2.9 3.8,6 5.6,7.6 0.4,0 1,-2.5 1.3,-2.4 0.3,0 -0.4,2.5 0.1,3.1 0.5,0.5 3.6,1.8 4.1,2.5 0.5,0.7 0.9,-3.3 1.1,-3.3 0.4,0.5 -0.4,3.9 0.7,4.6 0.6,0.9 1.6,2.3 2.4,2.7 0,0 0.8,-0.5 2.3,-0.5 1.5,0 2.6,0.5 2.6,0.5 0.8,-0.3 1.8,-1.8 2.4,-2.7 1.1,-0.7 0.2,-4.2 0.7,-4.6 0.2,0 0.6,4 1.1,3.3 0.5,-0.7 3.6,-1.9 4.1,-2.5 0.5,-0.5 -0.2,-3 0.1,-3.1 0.3,0 0.8,2.4 1.3,2.4 1.9,-1.6 4.1,-4.7 5.7,-7.6 0.5,-3.1 0.1,-3.6 -1.5,-6.8 -1.3,-3.2 -1.7,-5.6 -1.7,-6 0,-0.4 2.7,5.6 3.2,6.4 0.5,0.8 1.5,0.9 0.9,-1.7 C 68,22 65,17.4 65.6,17.1 c 0.6,-0.3 3.9,6.8 4.8,6.7 0.9,-0.1 1.3,-4.1 1.7,-4.1 0.3,0 -0.3,4.7 -1.6,6.4 -1.2,1.7 -0.7,6 -0.7,6 0,0 -0.1,1.2 1.9,0.7 3,-0.9 3.7,-6.2 4,-6.2 0.3,0.1 -0.1,5 -0.7,5.2 -0.5,0.3 1.7,0.4 1.7,0.7 z"
     id="path4"
     style="filter:url(#filter3338)"
     transform="matrix(1.5163738,0,0,1.5163738,-26.197786,-25.884461)" /></svg>