<?xml version="1.0" encoding="UTF-8" standalone="no"?>
<svg
   xmlns:dc="http://purl.org/dc/elements/1.1/"
   xmlns:cc="http://creativecommons.org/ns#"
   xmlns:rdf="http://www.w3.org/1999/02/22-rdf-syntax-ns#"
   xmlns:svg="http://www.w3.org/2000/svg"
   xmlns="http://www.w3.org/2000/svg"
   xmlns:sodipodi="http://sodipodi.sourceforge.net/DTD/sodipodi-0.dtd"
   xmlns:inkscape="http://www.inkscape.org/namespaces/inkscape"
   id="svg2"
   xml:space="preserve"
   enable-background="new 0 0 100 100"
   viewBox="0 0 100 100"
   y="0px"
   x="0px"
   version="1.1"
   inkscape:version="0.91 r13725"
   sodipodi:docname="deeros.svg"><sodipodi:namedview
     pagecolor="#ffffff"
     bordercolor="#666666"
     borderopacity="1"
     objecttolerance="10"
     gridtolerance="10"
     guidetolerance="10"
     inkscape:pageopacity="0"
     inkscape:pageshadow="2"
     inkscape:window-width="828"
     inkscape:window-height="480"
     id="namedview21"
     showgrid="false"
     inkscape:zoom="2.36"
     inkscape:cx="50"
     inkscape:cy="50"
     inkscape:window-x="0"
     inkscape:window-y="0"
     inkscape:window-maximized="0"
     inkscape:current-layer="svg2" /><title
     id="title4135">Deer</title><metadata
     id="metadata10"><rdf:RDF><cc:Work
         rdf:about=""><dc:format>image/svg+xml</dc:format><dc:type
           rdf:resource="http://purl.org/dc/dcmitype/StillImage" /><dc:title>Deer</dc:title></cc:Work></rdf:RDF></metadata><defs
     id="defs8"><filter
       id="filter3338"
       style="color-interpolation-filters:sRGB;"><feColorMatrix
         id="feColorMatrix3340"
         result="color2"
         values="-1 0 0 0 1 0 -1 0 0 1 0 0 -1 0 1 0.21 0.72 0.07 1 0 " /></filter><filter
       style="color-interpolation-filters:sRGB;"
       id="filter3338-8"><feColorMatrix
         values="-1 0 0 0 1 0 -1 0 0 1 0 0 -1 0 1 0.21 0.72 0.07 1 0 "
         result="color2"
         id="feColorMatrix3340-7" /></filter></defs><path
     id="path4137"
     d="M 100,50 A 50,50 0 0 1 50,100 50,50 0 0 1 0,50 50,50 0 0 1 50,0 50,50 0 0 1 100,50 Z"
     style="fill:#ffffff;fill-opacity:1;stroke:none;stroke-width:0.75300002;stroke-linejoin:miter;stroke-miterlimit:4;stroke-dasharray:none;stroke-opacity:0" /><flowRoot
     style="fill:black;stroke:none;stroke-opacity:1;stroke-width:1px;stroke-linejoin:miter;stroke-linecap:butt;fill-opacity:1;font-family:sans-serif;font-style:normal;font-weight:normal;font-size:17.5px;line-height:125%;letter-spacing:0px;word-spacing:0px"
     id="flowRoot4147"
     xml:space="preserve"><flowRegion
       id="flowRegion4149"><rect
         y="1.1248993"
         x="124.0433"
         height="22.171991"
         width="20.374264"
         id="rect4151" /></flowRegion><flowPara
       id="flowPara4153" /></flowRoot><g
     id="g4164"><path
       transform="matrix(0.45683677,0,0,0.45683677,27.043952,16.03107)"
       style="fill:#ffffff;fill-opacity:1;filter:url(#filter3338-8)"
       id="path4"
       d="m 76.7,32.5 c 0,0.3 -4.6,1.2 -7.8,3.5 -2.6,1.9 -3.8,4.3 -3.9,4.7 -0.1,0.7 1.1,1.1 2.1,1.3 1.1,0.1 3,-1.9 3.3,-1.7 0.3,0.2 -1.4,2.8 -3.2,2.7 -1.8,-0.2 -2.9,-0.3 -4.8,-0.5 -1.9,-0.2 -5.2,2.6 -5.6,3.8 -0.2,0.7 -0.2,1 -0.1,1.2 0.1,0 0.1,0 0.1,0 0,0 2.2,-1.7 3.5,-2.5 1.3,-0.8 3.8,-1.4 3.8,-1.4 0,0 0.2,4 -1.5,6 -0.6,0.7 -1.4,1.2 -3,1.8 -1.5,0.6 -2.3,1.8 -2.3,1.8 0,0 0.6,1.1 0.2,2.8 0,1.4 -0.5,2 -0.5,2.2 l 0,0 c 0,0.4 0.3,2 0.9,2.4 0.7,0.5 1.1,2.2 1,2.2 -0.1,0 -0.3,-0.3 -0.4,-0.1 -0.1,0.2 1,2.5 0.8,2.8 -0.6,-0.3 -0.5,-0.4 -0.7,-0.3 -0.3,0.4 1.2,5.7 0.7,6.5 -0.1,0 -0.3,-0.8 -0.5,-0.6 -0.2,0.2 0.2,3.3 -0.4,3.3 -0.3,-0.3 -0.6,-0.2 -0.9,0.2 C 57.1,75 57,76.4 56.6,76.9 56.5,77 56.2,76.6 56,76.5 55,77 54.6,80 54.5,79.7 c -0.2,-0.3 -0.7,-0.6 -1,-0.3 -0.9,1.3 -2.8,3.7 -3,3.6 C 50.2,82.9 49.6,80.9 49.3,80.7 49,80.6 48.8,81.5 48.6,81.1 48.4,80.7 47.1,78.4 46.1,77.6 45,76 45.7,77.9 45.3,77.8 45,77.7 42.7,74 42.9,72.3 c 0.2,-1.7 -0.3,0.3 -0.6,0.2 -0.5,-0.8 0.2,-3.3 0.1,-3.8 -0.1,-0.6 -0.8,0.2 -1,0 -0.2,-0.1 0.1,-1.9 0.3,-3.3 0.2,-1.4 0.7,-1.7 0.7,-2.3 -0.1,0 -0.9,0.3 -0.9,0.3 0,0 0.2,-1 1.3,-2.7 1,-1.7 0.6,-2.1 1.1,-2.5 -0.2,-0.2 -0.7,-0.9 -0.9,-2.3 -0.3,-1.8 0.1,-2.8 0.1,-2.8 0,0 -0.8,-1.2 -2.3,-1.8 -1.5,-0.6 -2.4,-1.1 -3,-1.8 -1.8,-2.1 -1.5,-6 -1.5,-6 0,0 2.5,0.6 3.8,1.4 1.3,0.8 3.5,2.5 3.5,2.5 0,0 0,0 0.1,0 0.1,-0.1 0.1,-0.4 -0.1,-1.2 -0.3,-1.3 -3.7,-4 -5.6,-3.8 -1.9,0.2 -3,0.4 -4.8,0.5 -1.8,0.2 -3.5,-2.5 -3.2,-2.7 0.3,-0.2 2.2,1.8 3.3,1.7 1.1,-0.1 2.3,-0.5 2.2,-1.3 0,-0.3 -1.3,-2.8 -3.9,-4.7 -3.1,-2.3 -7.8,-3.2 -7.8,-3.5 0,-0.3 2.2,-0.4 1.5,-0.6 -0.7,-0.2 -1,-5.2 -0.7,-5.2 0.3,0 1,5.3 4,6.2 2.1,0.6 1.9,-0.7 1.9,-0.7 0,0 0.6,-4.3 -0.7,-6 -1.2,-1.7 -1.9,-6.3 -1.5,-6.4 0.3,-0.1 0.8,4 1.7,4.1 0.9,0 4.2,-7.1 4.8,-6.7 0.6,0.3 -2.5,4.9 -3.3,7.5 -0.6,2.6 0.4,2.5 0.9,1.7 0.5,-0.9 3.2,-6.8 3.2,-6.4 0.1,0.4 -0.4,2.8 -1.7,6 -1.6,3.2 -2,3.7 -1.5,6.8 1.6,2.9 3.8,6 5.6,7.6 0.4,0 1,-2.5 1.3,-2.4 0.3,0 -0.4,2.5 0.1,3.1 0.5,0.5 3.6,1.8 4.1,2.5 0.5,0.7 0.9,-3.3 1.1,-3.3 0.4,0.5 -0.4,3.9 0.7,4.6 0.6,0.9 1.6,2.3 2.4,2.7 0,0 0.8,-0.5 2.3,-0.5 1.5,0 2.6,0.5 2.6,0.5 0.8,-0.3 1.8,-1.8 2.4,-2.7 1.1,-0.7 0.2,-4.2 0.7,-4.6 0.2,0 0.6,4 1.1,3.3 0.5,-0.7 3.6,-1.9 4.1,-2.5 0.5,-0.5 -0.2,-3 0.1,-3.1 0.3,0 0.8,2.4 1.3,2.4 1.9,-1.6 4.1,-4.7 5.7,-7.6 0.5,-3.1 0.1,-3.6 -1.5,-6.8 -1.3,-3.2 -1.7,-5.6 -1.7,-6 0,-0.4 2.7,5.6 3.2,6.4 0.5,0.8 1.5,0.9 0.9,-1.7 C 68,22 65,17.4 65.6,17.1 c 0.6,-0.3 3.9,6.8 4.8,6.7 0.9,-0.1 1.3,-4.1 1.7,-4.1 0.3,0 -0.3,4.7 -1.6,6.4 -1.2,1.7 -0.7,6 -0.7,6 0,0 -0.1,1.2 1.9,0.7 3,-0.9 3.7,-6.2 4,-6.2 0.3,0.1 -0.1,5 -0.7,5.2 -0.5,0.3 1.7,0.4 1.7,0.7 z"
       inkscape:connector-curvature="0" /><g
       id="g4159"><g
         transform="matrix(1.7630598,0,0,1.7630598,-25.015302,-35.283871)"
         style="font-style:normal;font-variant:normal;font-weight:normal;font-stretch:normal;font-size:17.5px;line-height:125%;font-family:Quicksand;-inkscape-font-specification:Quicksand;letter-spacing:0px;word-spacing:0px;fill:#000000;fill-opacity:1;stroke:none;stroke-width:1px;stroke-linecap:butt;stroke-linejoin:miter;stroke-opacity:1"
         id="flowRoot4155"><path
           d="m 43.496641,58.621094 q 0,1.8025 -0.7525,3.2375 -0.7525,1.435 -2.0825,2.2575 -1.33,0.805 -3.0275,0.805 -1.6975,0 -3.0275,-0.805 -1.33,-0.8225 -2.0825,-2.2575 -0.7525,-1.435 -0.7525,-3.2375 0,-1.82 0.7525,-3.255 0.7525,-1.435 2.0825,-2.24 1.33,-0.805 3.0275,-0.805 1.6975,0 3.0275,0.805 1.33,0.805 2.0825,2.24 0.7525,1.435 0.7525,3.255 z m -1.12,0 q 0,-1.5225 -0.6125,-2.7125 -0.595,-1.2075 -1.68,-1.8725 -1.0675,-0.665 -2.45,-0.665 -1.3825,0 -2.4675,0.665 -1.0675,0.665 -1.68,1.8725 -0.595,1.19 -0.595,2.7125 0,1.5225 0.595,2.73 0.6125,1.19 1.68,1.855 1.085,0.665 2.4675,0.665 1.3825,0 2.45,-0.665 1.085,-0.665 1.68,-1.855 0.6125,-1.2075 0.6125,-2.73 z"
           style=""
           id="path4155" /><path
           d="m 49.282578,64.921094 q -1.26,0 -2.24,-0.42 -0.9625,-0.42 -1.8725,-1.3125 -0.21,-0.175 -0.21,-0.42 0,-0.21 0.1575,-0.385 0.175,-0.175 0.385,-0.175 0.21,0 0.385,0.175 1.365,1.505 3.4125,1.505 1.26,0 2.0825,-0.595 0.84,-0.595 0.84,-1.5575 0,-0.7525 -0.42,-1.2425 -0.4025,-0.5075 -1.0675,-0.8225 -0.665,-0.315 -1.6975,-0.6475 -1.12,-0.3325 -1.89,-0.735 -0.7525,-0.4025 -1.225,-1.0675 -0.4725,-0.6825 -0.4725,-1.715 0,-0.9275 0.49,-1.645 0.5075,-0.7175 1.4,-1.12 0.91,-0.42 2.0825,-0.42 1.0675,0 1.995,0.3675 0.945,0.35 1.505,1.015 0.2625,0.2975 0.2625,0.5075 0,0.1925 -0.175,0.3675 -0.175,0.1575 -0.385,0.1575 -0.175,0 -0.2975,-0.1225 -0.4725,-0.56 -1.26,-0.91 -0.7875,-0.35 -1.645,-0.35 -1.2775,0 -2.0825,0.5775 -0.805,0.56 -0.805,1.54 0,1.015 0.77,1.5575 0.77,0.5425 2.205,0.9975 1.2425,0.3675 2.03,0.7525 0.7875,0.385 1.2775,1.1025 0.5075,0.7 0.5075,1.855 0,0.8925 -0.525,1.6275 -0.5075,0.7175 -1.435,1.1375 -0.91,0.42 -2.0825,0.42 z"
           style=""
           id="path4157" /></g></g></g></svg>