<?xml version="1.0" encoding="UTF-8" standalone="no"?>
<svg
   xmlns:dc="http://purl.org/dc/elements/1.1/"
   xmlns:cc="http://creativecommons.org/ns#"
   xmlns:rdf="http://www.w3.org/1999/02/22-rdf-syntax-ns#"
   xmlns:svg="http://www.w3.org/2000/svg"
   xmlns="http://www.w3.org/2000/svg"
   xml:space="preserve"
   style="enable-background:new -4 12 190 48;"
   viewBox="-4 12 190 48"
   y="0px"
   x="0px"
   id="Swift"
   version="1.1"><metadata
     id="metadata3438"><rdf:RDF><cc:Work
         rdf:about=""><dc:format>image/svg+xml</dc:format><dc:type
           rdf:resource="http://purl.org/dc/dcmitype/StillImage" /><dc:title>Swift.org</dc:title></cc:Work></rdf:RDF></metadata><defs
     id="defs3436" /><style
     id="style3409"
     type="text/css">
	.st0{fill:#221F20;}
	.st1{fill:#EF5138;}
	.st2{fill:#FFFFFF;}
</style><title
     id="title3411">Swift.org</title><desc
     id="desc3413">Swift Logo</desc><path
     style="fill:#221f20;fill-opacity:1"
     id="path4"
     d="m 48.109477,23.69171 c 0,0.213898 -3.279767,0.855592 -5.561344,2.495478 -1.853782,1.35468 -2.709373,3.06587 -2.780672,3.35106 -0.0713,0.4991 0.784292,0.7843 1.497284,0.92689 0.784293,0.0713 2.138979,-1.35468 2.352877,-1.21208 0.213898,0.1426 -0.99819,1.99638 -2.281577,1.92508 -1.283387,-0.1426 -2.067679,-0.2139 -3.422366,-0.3565 -1.354686,-0.1426 -3.707563,1.85378 -3.99276,2.70937 -0.142598,0.4991 -0.142598,0.713 -0.0713,0.85559 0.0713,0 0.0713,0 0.0713,0 0,0 1.568585,-1.21208 2.495475,-1.78248 0.926891,-0.57039 2.709373,-0.99819 2.709373,-0.99819 0,0 0.142599,2.85197 -1.069489,4.27796 -0.427796,0.49909 -0.99819,0.85559 -2.138979,1.28339 -1.069489,0.42779 -1.639883,1.28338 -1.639883,1.28338 0,0 0.427795,0.7843 0.142598,1.99638 0,0.998194 -0.356496,1.425994 -0.356496,1.568594 l 0,0 c 0,0.28519 0.213898,1.42598 0.641693,1.71118 0.499095,0.3565 0.784293,1.56858 0.712993,1.56858 -0.0713,0 -0.213898,-0.21389 -0.285197,-0.0713 -0.0713,0.14259 0.712993,1.78248 0.570394,1.99637 -0.427795,-0.21389 -0.356496,-0.28519 -0.499095,-0.21389 -0.213897,0.28519 0.855592,4.06406 0.499095,4.63445 -0.0713,0 -0.213897,-0.57039 -0.356496,-0.4278 -0.142599,0.1426 0.142599,2.35288 -0.285197,2.35288 -0.213898,-0.2139 -0.427796,-0.1426 -0.641694,0.1426 -0.285197,0.2852 -0.356496,1.28339 -0.641693,1.63988 -0.0713,0.0713 -0.285197,-0.21389 -0.427796,-0.28519 -0.712993,0.35649 -0.99819,2.49547 -1.069489,2.28157 -0.142599,-0.21389 -0.499095,-0.42779 -0.712993,-0.21389 -0.641694,0.92689 -1.99638,2.63807 -2.138978,2.56677 -0.213898,-0.0713 -0.641694,-1.49729 -0.855592,-1.63988 -0.213898,-0.0713 -0.356496,0.57039 -0.499095,0.28519 -0.142598,-0.28519 -1.069489,-1.92508 -1.782482,-2.49547 -0.784292,-1.14079 -0.285197,0.2139 -0.570394,0.1426 -0.213898,-0.0713 -1.853782,-2.70938 -1.711183,-3.92146 0.142599,-1.21209 -0.213898,0.21389 -0.427796,0.14259 -0.356496,-0.57039 0.142599,-2.35287 0.0713,-2.70937 -0.0713,-0.42779 -0.570395,0.1426 -0.712993,0 -0.142599,-0.0713 0.0713,-1.35468 0.213898,-2.35287 0.142598,-0.99819 0.499095,-1.21209 0.499095,-1.63989 -0.0713,0 -0.641694,0.2139 -0.641694,0.2139 0,0 0.142599,-0.71299 0.926891,-1.92508 0.712993,-1.21209 0.427795,-1.49729 0.784292,-1.78248 -0.142599,-0.1426 -0.499095,-0.6417 -0.641694,-1.639894 -0.213898,-1.28338 0.0713,-1.99638 0.0713,-1.99638 0,0 -0.570395,-0.85559 -1.639884,-1.28338 -1.069489,-0.4278 -1.711183,-0.7843 -2.138978,-1.28339 -1.283388,-1.49728 -1.06949,-4.27796 -1.06949,-4.27796 0,0 1.782482,0.4278 2.709373,0.99819 0.926891,0.5704 2.495475,1.78249 2.495475,1.78249 0,0 0,0 0.0713,0 0.0713,-0.0713 0.0713,-0.2852 -0.0713,-0.8556 -0.213898,-0.92689 -2.638073,-2.85197 -3.99276,-2.70937 -1.354686,0.1426 -2.138978,0.2852 -3.422365,0.3565 -1.283388,0.1426 -2.495475,-1.78248 -2.281577,-1.92508 0.213897,-0.1426 1.568584,1.28338 2.352876,1.21208 0.784292,-0.0713 1.639883,-0.35649 1.568584,-0.92689 0,-0.21389 -0.926891,-1.99638 -2.780672,-3.35106 -2.210278,-1.639886 -5.561344,-2.281579 -5.561344,-2.495477 0,-0.213898 1.568584,-0.285197 1.069489,-0.427796 -0.499095,-0.142598 -0.712993,-3.707562 -0.499095,-3.707562 0.213898,0 0.712993,3.778862 2.851972,4.420555 1.497285,0.427796 1.354686,-0.499095 1.354686,-0.499095 0,0 0.427796,-3.065869 -0.499095,-4.277957 -0.855591,-1.212088 -1.354686,-4.491855 -1.069489,-4.563154 0.213898,-0.0713 0.570394,2.851971 1.212088,2.923271 0.641693,0 2.994569,-5.062249 3.422365,-4.777052 0.427796,0.213898 -1.782482,3.493665 -2.352876,5.347446 -0.427796,1.853781 0.285197,1.782482 0.641693,1.212088 0.356497,-0.641694 2.281577,-4.848351 2.281577,-4.563154 0.0713,0.285197 -0.285197,1.99638 -1.212087,4.277957 -1.140789,2.281577 -1.425986,2.638073 -1.06949,4.848351 1.140789,2.067679 2.709373,4.277959 3.99276,5.418749 0.285197,0 0.712993,-1.78249 0.926891,-1.71119 0.213898,0 -0.285197,1.78249 0.0713,2.21028 0.356497,0.3565 2.566774,1.28339 2.923271,1.78248 0.356496,0.4991 0.641693,-2.35287 0.784292,-2.35287 0.285197,0.35649 -0.285197,2.78067 0.499095,3.27976 0.427795,0.6417 1.140788,1.63989 1.711183,1.92508 0,0 0.570394,-0.35649 1.639883,-0.35649 1.069489,0 1.853781,0.35649 1.853781,0.35649 0.570395,-0.21389 1.283388,-1.28338 1.711183,-1.92508 0.784292,-0.49909 0.142599,-2.99457 0.499095,-3.27976 0.142599,0 0.427796,2.85197 0.784292,2.35287 0.356497,-0.49909 2.566774,-1.35468 2.923271,-1.78248 0.356496,-0.35649 -0.142599,-2.13898 0.0713,-2.21028 0.213898,0 0.570394,1.71119 0.926891,1.71119 1.354686,-1.14079 2.92327,-3.35107 4.064059,-5.418749 0.356496,-2.210278 0.0713,-2.566774 -1.069489,-4.848351 -0.926891,-2.281577 -1.212088,-3.99276 -1.212088,-4.277957 0,-0.285197 1.925081,3.99276 2.281577,4.563154 0.356496,0.570394 1.069489,0.641693 0.641694,-1.212088 -0.641694,-1.853781 -2.780672,-5.133548 -2.352877,-5.347446 0.427796,-0.213898 2.780672,4.848351 3.422366,4.777052 0.641693,-0.0713 0.92689,-2.923271 1.212088,-2.923271 0.213897,0 -0.213898,3.351066 -1.140789,4.563154 -0.855591,1.212088 -0.499095,4.277957 -0.499095,4.277957 0,0 -0.0713,0.855592 1.354686,0.499095 2.138979,-0.641693 2.638074,-4.420555 2.851972,-4.420555 0.213898,0.0713 -0.0713,3.564964 -0.499095,3.707562 -0.356497,0.213898 1.212088,0.285198 1.212088,0.499095 z" /><text
     id="text3493"
     y="59.33662"
     x="53.952995"
     style="font-style:normal;font-variant:normal;font-weight:normal;font-stretch:normal;font-size:56.33802795px;line-height:125%;font-family:Quicksand;-inkscape-font-specification:Quicksand;letter-spacing:0px;word-spacing:0px;fill:#221f20;fill-opacity:1;stroke:none;stroke-width:1px;stroke-linecap:butt;stroke-linejoin:miter;stroke-opacity:1"
     xml:space="preserve"><tspan
       y="59.33662"
       x="53.952995"
       id="tspan3495">Deer</tspan></text>
</svg>