<?xml version="1.0" encoding="UTF-8" standalone="no"?>
<svg
   xmlns:dc="http://purl.org/dc/elements/1.1/"
   xmlns:cc="http://creativecommons.org/ns#"
   xmlns:rdf="http://www.w3.org/1999/02/22-rdf-syntax-ns#"
   xmlns:svg="http://www.w3.org/2000/svg"
   xmlns="http://www.w3.org/2000/svg"
   xmlns:xlink="http://www.w3.org/1999/xlink"
   xmlns:sodipodi="http://sodipodi.sourceforge.net/DTD/sodipodi-0.dtd"
   xmlns:inkscape="http://www.inkscape.org/namespaces/inkscape"
   height="100"
   width="100"
   id="svg4136"
   version="1.1"
   inkscape:version="0.91 r13725"
   sodipodi:docname="airOS.svg">
  <title
     id="title4157">airOS Icon</title>
  <metadata
     id="metadata4144">
    <rdf:RDF>
      <cc:Work
         rdf:about="">
        <dc:format>image/svg+xml</dc:format>
        <dc:type
           rdf:resource="http://purl.org/dc/dcmitype/StillImage" />
        <dc:title>airOS Icon</dc:title>
      </cc:Work>
    </rdf:RDF>
  </metadata>
  <defs
     id="defs4142">
    <linearGradient
       inkscape:collect="always"
       id="linearGradient4215">
      <stop
         style="stop-color:#0034c5;stop-opacity:1"
         offset="0"
         id="stop4217" />
      <stop
         style="stop-color:#0a0a0a;stop-opacity:1"
         offset="1"
         id="stop4219" />
    </linearGradient>
    <linearGradient
       inkscape:collect="always"
       xlink:href="#linearGradient4215"
       id="linearGradient4221"
       x1="46.936226"
       y1="16.630917"
       x2="48.027905"
       y2="83.527985"
       gradientUnits="userSpaceOnUse" />
  </defs>
  <sodipodi:namedview
     pagecolor="#ffffff"
     bordercolor="#666666"
     borderopacity="1"
     objecttolerance="10"
     gridtolerance="10"
     guidetolerance="10"
     inkscape:pageopacity="0"
     inkscape:pageshadow="2"
     inkscape:window-width="1858"
     inkscape:window-height="1057"
     id="namedview4140"
     showgrid="false"
     inkscape:zoom="6.2932504"
     inkscape:cx="52.591162"
     inkscape:cy="46.470646"
     inkscape:window-x="1912"
     inkscape:window-y="-8"
     inkscape:window-maximized="1"
     inkscape:current-layer="svg4136" />
  <circle
     style="fill:#ffffff;fill-opacity:1;stroke:none;stroke-width:10;stroke-linejoin:miter;stroke-miterlimit:4;stroke-dasharray:none;stroke-opacity:1"
     id="path4155"
     cx="50"
     cy="50"
     r="50" />
  <path
     d="m 70.70944,16.404262 c -1.621,0.18889 -7.737,6.4392 -19.093,25.311001 3.0187,0.032 5.663,1.6919 7.0938,4.1247 11.41,-20.557001 13.346,-28.772001 12.25,-29.404001 -0.0685,-0.03943 -0.14194,-0.04384 -0.25,-0.03125 z m -19.187,29.467001 c -2.2942,0 -4.1562,1.8647 -4.1562,4.156 0,2.2913 1.862,4.156 4.1562,4.156 2.2942,0 4.1562,-1.8647 4.1562,-4.156 0,-2.2913 -1.862,-4.156 -4.1562,-4.156 z m -7.2188,0.0625 c -23.477,0.41497 -31.531,2.8316 -31.531,4.0935 0,1.2609 8.0532,3.6795 31.531,4.0935 -0.68785,-1.2069 -1.0938,-2.6066 -1.0938,-4.0935 0,-1.4859 0.40594,-2.8856 1.0938,-4.0935 z m 14.406,8.2495 c -1.4238,2.4358 -4.0448,4.0887 -7.0625,4.1247 12.105,20.107 18.216,25.878 19.312,25.248 1.0943,-0.63196 -0.84705,-8.8283 -12.25,-29.373 z"
     id="path4138"
     inkscape:connector-curvature="0"
     sodipodi:nodetypes="ccccccssssscscscccccc"
     style="fill:url(#linearGradient4221);fill-opacity:1" />
</svg>
