<?xml version="1.0" encoding="UTF-8" standalone="no"?>
<svg
   xmlns:dc="http://purl.org/dc/elements/1.1/"
   xmlns:cc="http://creativecommons.org/ns#"
   xmlns:rdf="http://www.w3.org/1999/02/22-rdf-syntax-ns#"
   xmlns:svg="http://www.w3.org/2000/svg"
   xmlns="http://www.w3.org/2000/svg"
   version="1.1"
   id="Swift"
   x="0px"
   y="0px"
   viewBox="-4 12 190 48"
   style="enable-background:new -4 12 190 48;"
   xml:space="preserve"><metadata
     id="metadata3438"><rdf:RDF><cc:Work
         rdf:about=""><dc:format>image/svg+xml</dc:format><dc:type
           rdf:resource="http://purl.org/dc/dcmitype/StillImage" /><dc:title>Deer</dc:title></cc:Work></rdf:RDF></metadata><defs
     id="defs3436" /><style
     type="text/css"
     id="style3409">
	.st0{fill:#221F20;}
	.st1{fill:#EF5138;}
	.st2{fill:#FFFFFF;}
</style><title
     id="title3411">Swift.org</title><desc
     id="desc3413">Swift Logo</desc><path
     d="m 48.109477,23.69171 c 0,0.213898 -3.279767,0.855592 -5.561344,2.495478 -1.853782,1.35468 -2.709373,3.06587 -2.780672,3.35106 -0.0713,0.4991 0.784292,0.7843 1.497284,0.92689 0.784293,0.0713 2.138979,-1.35468 2.352877,-1.21208 0.213898,0.1426 -0.99819,1.99638 -2.281577,1.92508 -1.283387,-0.1426 -2.067679,-0.2139 -3.422366,-0.3565 -1.354686,-0.1426 -3.707563,1.85378 -3.99276,2.70937 -0.142598,0.4991 -0.142598,0.713 -0.0713,0.85559 0.0713,0 0.0713,0 0.0713,0 0,0 1.568585,-1.21208 2.495475,-1.78248 0.926891,-0.57039 2.709373,-0.99819 2.709373,-0.99819 0,0 0.142599,2.85197 -1.069489,4.27796 -0.427796,0.49909 -0.99819,0.85559 -2.138979,1.28339 -1.069489,0.42779 -1.639883,1.28338 -1.639883,1.28338 0,0 0.427795,0.7843 0.142598,1.99638 0,0.998194 -0.356496,1.425994 -0.356496,1.568594 l 0,0 c 0,0.28519 0.213898,1.42598 0.641693,1.71118 0.499095,0.3565 0.784293,1.56858 0.712993,1.56858 -0.0713,0 -0.213898,-0.21389 -0.285197,-0.0713 -0.0713,0.14259 0.712993,1.78248 0.570394,1.99637 -0.427795,-0.21389 -0.356496,-0.28519 -0.499095,-0.21389 -0.213897,0.28519 0.855592,4.06406 0.499095,4.63445 -0.0713,0 -0.213897,-0.57039 -0.356496,-0.4278 -0.142599,0.1426 0.142599,2.35288 -0.285197,2.35288 -0.213898,-0.2139 -0.427796,-0.1426 -0.641694,0.1426 -0.285197,0.2852 -0.356496,1.28339 -0.641693,1.63988 -0.0713,0.0713 -0.285197,-0.21389 -0.427796,-0.28519 -0.712993,0.35649 -0.99819,2.49547 -1.069489,2.28157 -0.142599,-0.21389 -0.499095,-0.42779 -0.712993,-0.21389 -0.641694,0.92689 -1.99638,2.63807 -2.138978,2.56677 -0.213898,-0.0713 -0.641694,-1.49729 -0.855592,-1.63988 -0.213898,-0.0713 -0.356496,0.57039 -0.499095,0.28519 -0.142598,-0.28519 -1.069489,-1.92508 -1.782482,-2.49547 -0.784292,-1.14079 -0.285197,0.2139 -0.570394,0.1426 -0.213898,-0.0713 -1.853782,-2.70938 -1.711183,-3.92146 0.142599,-1.21209 -0.213898,0.21389 -0.427796,0.14259 -0.356496,-0.57039 0.142599,-2.35287 0.0713,-2.70937 -0.0713,-0.42779 -0.570395,0.1426 -0.712993,0 -0.142599,-0.0713 0.0713,-1.35468 0.213898,-2.35287 0.142598,-0.99819 0.499095,-1.21209 0.499095,-1.63989 -0.0713,0 -0.641694,0.2139 -0.641694,0.2139 0,0 0.142599,-0.71299 0.926891,-1.92508 0.712993,-1.21209 0.427795,-1.49729 0.784292,-1.78248 -0.142599,-0.1426 -0.499095,-0.6417 -0.641694,-1.639894 -0.213898,-1.28338 0.0713,-1.99638 0.0713,-1.99638 0,0 -0.570395,-0.85559 -1.639884,-1.28338 -1.069489,-0.4278 -1.711183,-0.7843 -2.138978,-1.28339 -1.283388,-1.49728 -1.06949,-4.27796 -1.06949,-4.27796 0,0 1.782482,0.4278 2.709373,0.99819 0.926891,0.5704 2.495475,1.78249 2.495475,1.78249 0,0 0,0 0.0713,0 0.0713,-0.0713 0.0713,-0.2852 -0.0713,-0.8556 -0.213898,-0.92689 -2.638073,-2.85197 -3.99276,-2.70937 -1.354686,0.1426 -2.138978,0.2852 -3.422365,0.3565 -1.283388,0.1426 -2.495475,-1.78248 -2.281577,-1.92508 0.213897,-0.1426 1.568584,1.28338 2.352876,1.21208 0.784292,-0.0713 1.639883,-0.35649 1.568584,-0.92689 0,-0.21389 -0.926891,-1.99638 -2.780672,-3.35106 -2.210278,-1.639886 -5.561344,-2.281579 -5.561344,-2.495477 0,-0.213898 1.568584,-0.285197 1.069489,-0.427796 -0.499095,-0.142598 -0.712993,-3.707562 -0.499095,-3.707562 0.213898,0 0.712993,3.778862 2.851972,4.420555 1.497285,0.427796 1.354686,-0.499095 1.354686,-0.499095 0,0 0.427796,-3.065869 -0.499095,-4.277957 -0.855591,-1.212088 -1.354686,-4.491855 -1.069489,-4.563154 0.213898,-0.0713 0.570394,2.851971 1.212088,2.923271 0.641693,0 2.994569,-5.062249 3.422365,-4.777052 0.427796,0.213898 -1.782482,3.493665 -2.352876,5.347446 -0.427796,1.853781 0.285197,1.782482 0.641693,1.212088 0.356497,-0.641694 2.281577,-4.848351 2.281577,-4.563154 0.0713,0.285197 -0.285197,1.99638 -1.212087,4.277957 -1.140789,2.281577 -1.425986,2.638073 -1.06949,4.848351 1.140789,2.067679 2.709373,4.277959 3.99276,5.418749 0.285197,0 0.712993,-1.78249 0.926891,-1.71119 0.213898,0 -0.285197,1.78249 0.0713,2.21028 0.356497,0.3565 2.566774,1.28339 2.923271,1.78248 0.356496,0.4991 0.641693,-2.35287 0.784292,-2.35287 0.285197,0.35649 -0.285197,2.78067 0.499095,3.27976 0.427795,0.6417 1.140788,1.63989 1.711183,1.92508 0,0 0.570394,-0.35649 1.639883,-0.35649 1.069489,0 1.853781,0.35649 1.853781,0.35649 0.570395,-0.21389 1.283388,-1.28338 1.711183,-1.92508 0.784292,-0.49909 0.142599,-2.99457 0.499095,-3.27976 0.142599,0 0.427796,2.85197 0.784292,2.35287 0.356497,-0.49909 2.566774,-1.35468 2.923271,-1.78248 0.356496,-0.35649 -0.142599,-2.13898 0.0713,-2.21028 0.213898,0 0.570394,1.71119 0.926891,1.71119 1.354686,-1.14079 2.92327,-3.35107 4.064059,-5.418749 0.356496,-2.210278 0.0713,-2.566774 -1.069489,-4.848351 -0.926891,-2.281577 -1.212088,-3.99276 -1.212088,-4.277957 0,-0.285197 1.925081,3.99276 2.281577,4.563154 0.356496,0.570394 1.069489,0.641693 0.641694,-1.212088 -0.641694,-1.853781 -2.780672,-5.133548 -2.352877,-5.347446 0.427796,-0.213898 2.780672,4.848351 3.422366,4.777052 0.641693,-0.0713 0.92689,-2.923271 1.212088,-2.923271 0.213897,0 -0.213898,3.351066 -1.140789,4.563154 -0.855591,1.212088 -0.499095,4.277957 -0.499095,4.277957 0,0 -0.0713,0.855592 1.354686,0.499095 2.138979,-0.641693 2.638074,-4.420555 2.851972,-4.420555 0.213898,0.0713 -0.0713,3.564964 -0.499095,3.707562 -0.356497,0.213898 1.212088,0.285198 1.212088,0.499095 z"
     id="path4"
     style="fill:#221f20;fill-opacity:1" /><g
     id="text3493"
     style="font-style:normal;font-variant:normal;font-weight:normal;font-stretch:normal;font-size:56.33802795px;line-height:125%;font-family:Quicksand;-inkscape-font-specification:Quicksand;letter-spacing:0px;word-spacing:0px;fill:#221f20;fill-opacity:1;stroke:none;stroke-width:1px;stroke-linecap:butt;stroke-linejoin:miter;stroke-opacity:1"><path
       id="path4140"
       style=""
       d="m 75.305108,19.900001 q 5.408451,0 9.070422,2.704225 3.71831,2.647887 5.521127,7.15493 1.859155,4.450704 1.859155,9.859155 0,5.577464 -1.859155,10.028169 -1.802817,4.450704 -5.521127,7.098591 -3.661971,2.591549 -9.070422,2.591549 l -14.366197,0 q -0.732395,0 -1.239437,-0.450704 -0.450704,-0.507042 -0.450704,-1.239437 l 0,-36.056337 q 0,-0.732395 0.450704,-1.183099 0.507042,-0.507042 1.239437,-0.507042 l 14.366197,0 z m -0.56338,36.112676 q 6.760563,0 10.084507,-4.507043 3.323943,-4.56338 3.323943,-11.887323 0,-4.563381 -1.40845,-8.225353 -1.408451,-3.718309 -4.450705,-5.915492 -2.985915,-2.253522 -7.549295,-2.253522 l -11.943662,0 0,32.788733 11.943662,0 z" /><path
       id="path4142"
       style=""
       d="m 123.67483,43.280282 q 0,0.676057 -0.50705,1.183099 -0.50704,0.450704 -1.1831,0.450704 l -21.29577,0 q 0,3.380282 1.35211,6.084507 1.40845,2.647888 3.94366,4.225352 2.59155,1.521127 6.08451,1.521127 2.70423,0 4.84507,-1.126761 2.14085,-1.12676 3.43662,-2.873239 0.61972,-0.507042 1.1831,-0.507042 0.56338,0 1.01408,0.450704 0.45071,0.450704 0.45071,1.014085 0,0.619718 -0.56338,1.183098 -1.80282,2.197183 -4.56338,3.605634 -2.70423,1.408451 -5.74648,1.408451 -4.33803,0 -7.66197,-1.859155 -3.32395,-1.859155 -5.183101,-5.183099 -1.859155,-3.380282 -1.859155,-7.774648 0,-4.619718 1.802817,-8.056338 1.859159,-3.492957 4.901409,-5.295774 3.04225,-1.859155 6.47887,-1.859155 3.38028,0 6.30986,1.577464 2.98592,1.577465 4.84507,4.619719 1.85916,3.042253 1.9155,7.211267 z M 110.6044,33.139437 q -3.2676,0 -6.0845,2.253521 -2.76057,2.253522 -3.5493,6.478874 l 19.21127,0 0,-0.450705 q -0.28169,-2.535211 -1.69014,-4.394366 -1.40845,-1.915493 -3.5493,-2.873239 -2.08451,-1.014085 -4.33803,-1.014085 z" /><path
       id="path4144"
       style=""
       d="m 155.03486,43.280282 q 0,0.676057 -0.50704,1.183099 -0.50704,0.450704 -1.1831,0.450704 l -21.29577,0 q 0,3.380282 1.35211,6.084507 1.40845,2.647888 3.94366,4.225352 2.59155,1.521127 6.08451,1.521127 2.70423,0 4.84507,-1.126761 2.14085,-1.12676 3.43662,-2.873239 0.61972,-0.507042 1.1831,-0.507042 0.56338,0 1.01408,0.450704 0.45071,0.450704 0.45071,1.014085 0,0.619718 -0.56338,1.183098 -1.80282,2.197183 -4.56338,3.605634 -2.70423,1.408451 -5.74648,1.408451 -4.33803,0 -7.66197,-1.859155 -3.32395,-1.859155 -5.1831,-5.183099 -1.85916,-3.380282 -1.85916,-7.774648 0,-4.619718 1.80282,-8.056338 1.85915,-3.492957 4.90141,-5.295774 3.04225,-1.859155 6.47887,-1.859155 3.38028,0 6.30986,1.577464 2.98592,1.577465 4.84507,4.619719 1.85916,3.042253 1.91549,7.211267 z M 141.96444,33.139437 q -3.2676,0 -6.08451,2.253521 -2.76056,2.253522 -3.54929,6.478874 l 19.21127,0 0,-0.450705 q -0.28169,-2.535211 -1.69014,-4.394366 -1.40846,-1.915493 -3.5493,-2.873239 -2.08451,-1.014085 -4.33803,-1.014085 z" /><path
       id="path4146"
       style=""
       d="m 175.52166,29.871832 q 1.12676,0 2.02816,0.450704 0.90141,0.450704 0.90141,1.352113 0,0.788732 -0.4507,1.295774 -0.45071,0.450704 -1.07042,0.450704 -0.28169,0 -1.12676,-0.28169 -0.78874,-0.28169 -1.52113,-0.28169 -2.08451,0 -4.16901,1.633803 -2.02817,1.577465 -3.38029,4.112676 -1.29577,2.535211 -1.29577,5.126761 l 0,13.915492 q 0,0.732395 -0.50704,1.239437 -0.45071,0.450704 -1.1831,0.450704 -0.7324,0 -1.23944,-0.450704 -0.4507,-0.507042 -0.4507,-1.239437 l 0,-25.239436 q 0,-0.732394 0.4507,-1.183099 0.50704,-0.507042 1.23944,-0.507042 0.73239,0 1.1831,0.507042 0.50704,0.450705 0.50704,1.183099 l 0,4.957746 q 1.29577,-3.211267 3.88732,-5.295774 2.64789,-2.140845 6.19719,-2.197183 z" /></g></svg>
